<svg xmlns="http://www.w3.org/2000/svg" xmlns:xlink="http://www.w3.org/1999/xlink" width="123" height="123" xmlns:v="https://vecta.io/nano"><path d="M22.176 16.391a6.05 6.05 0 0 0-6.042-6.042 6.05 6.05 0 0 0-6.043 6.042 6.05 6.05 0 0 0 6.042 6.043 6.05 6.05 0 0 0 6.043-6.043zm-6.042 2.44c-1.346 0-2.44-1.095-2.44-2.44a2.44 2.44 0 0 1 2.439-2.439c1.345 0 2.44 1.094 2.44 2.439s-1.094 2.44-2.439 2.44zm14.355 3.604a6.05 6.05 0 0 0 6.043-6.043 6.05 6.05 0 0 0-6.043-6.042 6.05 6.05 0 0 0-6.042 6.042 6.05 6.05 0 0 0 6.042 6.043zm0-8.482c1.346 0 2.44 1.094 2.44 2.439s-1.094 2.44-2.44 2.44-2.439-1.095-2.439-2.44a2.44 2.44 0 0 1 2.439-2.439zm14.357 8.482a6.05 6.05 0 0 0 6.042-6.043 6.05 6.05 0 0 0-6.042-6.042 6.05 6.05 0 0 0-6.043 6.042 6.05 6.05 0 0 0 6.043 6.043zm0-8.482a2.44 2.44 0 0 1 2.439 2.439c0 1.345-1.094 2.44-2.439 2.44s-2.44-1.095-2.44-2.44 1.094-2.439 2.44-2.439zm19.937 4.24h43.883a1.8 1.8 0 0 0 1.802-1.802c0-.995-.807-1.802-1.802-1.802h0-43.883a1.802 1.802 0 1 0 0 3.604zm58.115-8.064l-.034-.185-.018-.092a7.54 7.54 0 0 0-7.37-6.009h0H7.523C3.375 3.844 0 7.218 0 11.367h0v100.238c0 4.149 3.375 7.523 7.523 7.523h0 107.953c4.148 0 7.523-3.375 7.523-7.523h0V11.367a7.59 7.59 0 0 0-.101-1.238zm-7.422 105.395H7.523c-2.161 0-3.92-1.759-3.92-3.92h0V28.94h10.044a1.802 1.802 0 1 0 0-3.604h0H3.604V11.367c0-2.161 1.759-3.92 3.92-3.92h0 107.953c1.756 0 3.246 1.161 3.743 2.755l.014.046a3.88 3.88 0 0 1 .038.14c.005.016.008.032.012.048l.032.142a3.76 3.76 0 0 1 .048.291 1.76 1.76 0 0 1 .011.099 3.75 3.75 0 0 1 .021.4h0v13.969H20.374a1.8 1.8 0 0 0-1.802 1.802c0 .995.807 1.802 1.802 1.802h0 99.022v82.665c0 2.161-1.759 3.92-3.92 3.92z"/><use xlink:href="#B"/><use xlink:href="#B" x="30.911"/><path d="M45.045 90.274h32.91a1.8 1.8 0 0 0 1.802-1.802c0-.995-.807-1.802-1.802-1.802h0-32.91c-.995 0-1.802.807-1.802 1.802a1.8 1.8 0 0 0 1.802 1.802zm41.189-43.583H81.32v-3.573c0-3.307-2.69-5.997-5.996-5.997h0-27.646c-3.306 0-5.996 2.69-5.996 5.997h0v3.573h-4.914a11.56 11.56 0 0 0-11.542 11.542h0v37.262a11.56 11.56 0 0 0 11.542 11.542h0H68.79c.995 0 1.802-.807 1.802-1.802a1.8 1.8 0 0 0-1.802-1.802h0-32.022a7.95 7.95 0 0 1-7.938-7.938h0V58.232a7.95 7.95 0 0 1 7.938-7.938h0 49.468a7.95 7.95 0 0 1 7.938 7.938h0v37.262a7.95 7.95 0 0 1-7.938 7.938h0-10.72a1.8 1.8 0 0 0-1.802 1.802c0 .995.807 1.802 1.802 1.802h0 10.72a11.56 11.56 0 0 0 11.542-11.542h0V58.232A11.56 11.56 0 0 0 86.236 46.69zm-40.95 0v-3.573c0-1.32 1.074-2.394 2.393-2.394h0 27.645a2.4 2.4 0 0 1 2.394 2.394h0v3.573z"/><defs ><path id="B" d="M39.966 75.493c.704.704 1.844.703 2.548 0h0l3.53-3.531 3.531 3.531c.704.704 1.844.703 2.548 0s.704-1.845 0-2.549h0l-3.53-3.53 3.53-3.53c.704-.704.704-1.845 0-2.549s-1.845-.703-2.548 0h0l-3.531 3.531-3.53-3.531c-.704-.703-1.845-.703-2.548 0s-.704 1.845 0 2.549h0l3.53 3.53-3.53 3.53c-.704.704-.704 1.845 0 2.549z"/></defs></svg>