<svg width="20" height="21" viewBox="0 0 20 21" fill="none" xmlns="http://www.w3.org/2000/svg">
<g id="eye-off" clip-path="url(#clip0_2575_3735)">
<path id="Vector" d="M14.9507 15.4497C13.5261 16.5355 11.7916 17.1371 10.0007 17.1664C4.16732 17.1664 0.833984 10.4997 0.833984 10.4997C1.87056 8.56794 3.30826 6.8802 5.05065 5.5497M8.25065 4.03303C8.82426 3.89876 9.41154 3.83164 10.0007 3.83303C15.834 3.83303 19.1673 10.4997 19.1673 10.4997C18.6615 11.446 18.0582 12.337 17.3673 13.158M11.7673 12.2664C11.5384 12.512 11.2624 12.709 10.9558 12.8456C10.6491 12.9823 10.3181 13.0557 9.98239 13.0617C9.64672 13.0676 9.31329 13.0058 9.00199 12.8801C8.6907 12.7544 8.40792 12.5672 8.17052 12.3298C7.93313 12.0924 7.74598 11.8096 7.62024 11.4984C7.49451 11.1871 7.43276 10.8536 7.43868 10.518C7.4446 10.1823 7.51808 9.85123 7.65472 9.54457C7.79135 9.2379 7.98836 8.9619 8.23398 8.73303" stroke="#34B350" stroke-width="2" stroke-linecap="round" stroke-linejoin="round"/>
<path id="Vector_2" d="M0.833984 1.33301L19.1673 19.6663" stroke="#34B350" stroke-width="2" stroke-linecap="round" stroke-linejoin="round"/>
</g>
<defs>
<clipPath id="clip0_2575_3735">
<rect width="20" height="20" fill="white" transform="translate(0 0.5)"/>
</clipPath>
</defs>
</svg>
