<svg width="16" height="16" viewBox="0 0 16 16" fill="none" xmlns="http://www.w3.org/2000/svg">
<path d="M8.00016 14.6668C11.6821 14.6668 14.6668 11.6821 14.6668 8.00016C14.6668 4.31826 11.6821 1.3335 8.00016 1.3335C4.31826 1.3335 1.3335 4.31826 1.3335 8.00016C1.3335 11.6821 4.31826 14.6668 8.00016 14.6668Z" stroke="#35B350" stroke-width="1.5" stroke-linecap="round" stroke-linejoin="round"/>
<path d="M6.06006 6.00038C6.21679 5.55482 6.52616 5.17912 6.93336 4.9398C7.34056 4.70049 7.81932 4.61301 8.28484 4.69285C8.75036 4.7727 9.1726 5.01473 9.47678 5.37606C9.78095 5.7374 9.94743 6.19473 9.94672 6.66705C9.94672 8.00038 7.94672 8.66705 7.94672 8.66705" stroke="#35B350" stroke-width="1.5" stroke-linecap="round" stroke-linejoin="round"/>
<path d="M8 11.3335H8.00667" stroke="#35B350" stroke-width="1.5" stroke-linecap="round" stroke-linejoin="round"/>
</svg>
