<svg width="175" height="28" viewBox="0 0 175 28" fill="none" xmlns="http://www.w3.org/2000/svg">
<path d="M7.25983 20.9226H0.15625V27.9997H7.25983V20.9226Z" fill="#00AE4D"/>
<path d="M21.7794 20.7673H14.6758V27.8445H21.7794V20.7673Z" fill="#AC64E2"/>
<path d="M7.25983 14.2458H0.15625V21.323H7.25983V14.2458Z" fill="#00AE4D"/>
<path d="M15.1094 13.7581H8.00586V20.8352H15.1094V13.7581Z" fill="#AC64E2"/>
<path d="M21.7794 14.0891H14.6758V21.1662H21.7794V14.0891Z" fill="#AC64E2"/>
<path d="M29.629 13.7581H22.5254V20.8352H29.629V13.7581Z" fill="#AC64E2"/>
<path d="M7.25983 7.17188H0.15625V14.249H7.25983V7.17188Z" fill="#00AE4D"/>
<path d="M21.7794 7.0166H14.6758V14.0937H21.7794V7.0166Z" fill="#AC64E2"/>
<path d="M7.28689 7.11902V0.0380859H0L7.33654 7.11902" fill="#00AE4D"/>
<path d="M14.5584 0.019043H7.27148V7.09617H14.5584V0.019043Z" fill="#00AE4D"/>
<path d="M14.4942 0V7.07713H21.781L14.4942 0Z" fill="#00AE4D"/>
<path d="M14.6758 20.7673V27.8445H21.7794L14.6758 20.7673Z" fill="#AC64E2"/>
<path d="M48.4059 20.6579H41.6193L40.5271 23.8198H35.4629L42.4175 5.61328H47.6039L54.5585 23.8198H49.4944L48.4021 20.6579H48.4059ZM47.1456 17.0584L45.0107 10.9972L42.8796 17.0584H47.1456Z" fill="#0F0F0F"/>
<path d="M55.2871 11.4351H59.6753V13.4632C60.145 12.7212 60.7179 12.1543 61.3977 11.7624C62.0775 11.3667 62.8681 11.1726 63.7732 11.1726H64.1475C64.285 11.1726 64.4416 11.1878 64.6211 11.2221V15.3999C64.0406 15.1107 63.4104 14.9661 62.7306 14.9661C61.7109 14.9661 60.9471 15.2667 60.4391 15.8717C59.9312 16.4766 59.6753 17.3556 59.6753 18.5161V23.8277H55.2871V11.4351Z" fill="#0F0F0F"/>
<path d="M65.084 6.67554C65.084 6.33691 65.1489 6.0211 65.2788 5.72051C65.4086 5.42373 65.5843 5.16119 65.8134 4.9367C66.0388 4.71221 66.3023 4.53338 66.6002 4.40401C66.8981 4.27464 67.2189 4.20996 67.5588 4.20996C67.8987 4.20996 68.2157 4.27464 68.5174 4.40401C68.8153 4.53338 69.0788 4.7084 69.3041 4.9367C69.5294 5.16119 69.7089 5.42373 69.8388 5.72051C69.9686 6.01729 70.0336 6.33691 70.0336 6.67554C70.0336 7.01418 69.9686 7.32999 69.8388 7.63057C69.7089 7.92736 69.5333 8.1899 69.3041 8.41438C69.0788 8.63887 68.8153 8.81771 68.5174 8.94707C68.2195 9.07644 67.8987 9.14112 67.5588 9.14112C67.2189 9.14112 66.9019 9.07644 66.6002 8.94707C66.3023 8.81771 66.0388 8.64268 65.8134 8.41438C65.5881 8.18609 65.4086 7.92736 65.2788 7.63057C65.1489 7.33379 65.084 7.01418 65.084 6.67554ZM69.7624 11.4317V23.8205H65.3742V11.4355H69.7624V11.4317Z" fill="#0F0F0F"/>
<path d="M71.5547 3.7793H75.9429V13.0062C76.5387 12.2833 77.1459 11.7962 77.7608 11.5451C78.3756 11.294 79.0936 11.1722 79.9186 11.1722C81.4844 11.1722 82.6683 11.6022 83.4704 12.4659C84.2686 13.3258 84.6696 14.4901 84.6696 15.955V23.8274H80.2814V17.5721C80.2814 16.9443 80.2317 16.4382 80.1363 16.0501C80.0408 15.662 79.8766 15.3652 79.6512 15.156C79.2617 14.8173 78.7958 14.6499 78.2458 14.6499C77.5011 14.6499 76.932 14.8706 76.5387 15.3158C76.1415 15.7571 75.9467 16.3888 75.9467 17.2106V23.8274H71.5585V3.7793H71.5547Z" fill="#0F0F0F"/>
<path d="M96.0337 11.4353H100.445V23.8241H96.0337V22.4467C95.098 23.6224 93.8262 24.2084 92.2298 24.2084C91.3247 24.2084 90.4921 24.0448 89.7321 23.7138C88.9721 23.3827 88.3114 22.9223 87.7462 22.325C87.1809 21.7276 86.7417 21.0275 86.4247 20.2247C86.1078 19.418 85.9512 18.5429 85.9512 17.5917C85.9512 16.7051 86.1039 15.8642 86.4133 15.069C86.7188 14.2738 87.1504 13.5775 87.6965 12.9801C88.2465 12.3827 88.8995 11.9147 89.6595 11.5685C90.4196 11.2222 91.2598 11.051 92.1802 11.051C93.7307 11.051 95.0178 11.5913 96.0337 12.6681V11.4353ZM90.5074 17.5917C90.5074 17.995 90.58 18.3679 90.7251 18.7141C90.8702 19.0604 91.0688 19.3609 91.317 19.6197C91.5691 19.8784 91.867 20.0801 92.2145 20.2247C92.5621 20.3692 92.9364 20.4415 93.3412 20.4415C93.746 20.4415 94.0974 20.3692 94.4449 20.2247C94.7925 20.0801 95.0903 19.8784 95.3424 19.6197C95.5945 19.3609 95.7931 19.0642 95.9497 18.7255C96.1024 18.3869 96.1788 18.0254 96.1788 17.6373C96.1788 17.2492 96.1024 16.8839 95.9497 16.5377C95.7969 16.1915 95.5945 15.8909 95.3424 15.6321C95.0903 15.3734 94.7925 15.1717 94.4449 15.0272C94.0974 14.8826 93.7307 14.8103 93.3412 14.8103C92.9516 14.8103 92.5621 14.8826 92.2145 15.0272C91.867 15.1717 91.5691 15.3734 91.317 15.6321C91.065 15.8909 90.8702 16.1838 90.7251 16.5149C90.58 16.8459 90.5074 17.2036 90.5074 17.5879V17.5917Z" fill="#0F0F0F"/>
<path d="M102.219 11.4351H106.607V13.0066C107.203 12.2836 107.81 11.7966 108.425 11.5455C109.04 11.2944 109.758 11.1726 110.583 11.1726C111.457 11.1726 112.202 11.3134 112.824 11.595C113.447 11.8765 113.974 12.276 114.413 12.7897C114.768 13.2082 115.013 13.6762 115.139 14.1899C115.269 14.7074 115.334 15.2933 115.334 15.9516V23.8239H110.945V17.5687C110.945 16.9561 110.9 16.4614 110.812 16.0847C110.724 15.7081 110.564 15.4037 110.338 15.1792C110.143 14.9851 109.926 14.8481 109.685 14.7682C109.445 14.6883 109.185 14.6465 108.91 14.6465C108.165 14.6465 107.596 14.8672 107.203 15.3123C106.806 15.7537 106.611 16.3853 106.611 17.2072V23.8239H102.223V11.4351H102.219Z" fill="#0F0F0F"/>
<path d="M121.998 15.0793V23.823H117.609V15.0793H116.154V11.4342H117.609V7.7168H121.998V11.4342H124.495V15.0793H121.998Z" fill="#0F0F0F"/>
<path d="M131.308 16.9355V23.9137H128.703V6.73071H131.651C133.095 6.73071 134.187 6.82964 134.924 7.0313C135.669 7.23296 136.326 7.60965 136.891 8.16516C137.88 9.13161 138.377 10.3454 138.377 11.8141C138.377 13.3855 137.85 14.6335 136.792 15.5543C135.734 16.4751 134.31 16.9355 132.515 16.9355H131.308ZM131.308 14.5308H132.278C134.669 14.5308 135.864 13.6138 135.864 11.7798C135.864 9.94586 134.63 9.12019 132.167 9.12019H131.308V14.5308Z" fill="#00AE4D"/>
<path d="M142.585 6.73071V21.4785H147.657V23.9175H139.98V6.73071H142.585Z" fill="#00AE4D"/>
<path d="M151.13 6.73071V17.0801C151.13 18.5564 151.371 19.637 151.856 20.318C152.577 21.3035 153.593 21.7981 154.907 21.7981C156.221 21.7981 157.244 21.3035 157.966 20.318C158.451 19.656 158.692 18.5792 158.692 17.0801V6.73071H161.296V17.7954C161.296 19.6065 160.731 21.098 159.597 22.27C158.325 23.575 156.759 24.2295 154.903 24.2295C153.047 24.2295 151.489 23.575 150.221 22.27C149.091 21.098 148.521 19.6065 148.521 17.7954V6.73071H151.126H151.13Z" fill="#00AE4D"/>
<path d="M174.107 9.28846L171.995 10.5365C171.602 9.85539 171.224 9.41022 170.865 9.20095C170.495 8.96504 170.013 8.84328 169.425 8.84328C168.703 8.84328 168.104 9.04875 167.626 9.45588C167.149 9.85539 166.912 10.3614 166.912 10.9702C166.912 11.8073 167.539 12.4846 168.787 12.9944L170.506 13.6945C171.908 14.2577 172.931 14.9464 173.577 15.7606C174.226 16.5749 174.547 17.5679 174.547 18.7475C174.547 20.3265 174.02 21.6354 172.962 22.6665C171.896 23.7053 170.575 24.2265 168.997 24.2265C167.5 24.2265 166.263 23.7852 165.289 22.9024C164.327 22.0197 163.727 20.7755 163.49 19.1736L166.125 18.5953C166.244 19.6036 166.454 20.3037 166.752 20.688C167.286 21.4299 168.069 21.8028 169.097 21.8028C169.906 21.8028 170.582 21.5327 171.117 20.9886C171.652 20.4483 171.923 19.7596 171.923 18.9301C171.923 18.5953 171.877 18.2909 171.782 18.0131C171.69 17.7354 171.545 17.4804 171.346 17.2445C171.148 17.0086 170.896 16.7917 170.582 16.5863C170.269 16.3808 169.899 16.1868 169.463 16.0003L167.798 15.3116C165.438 14.3185 164.258 12.8613 164.258 10.9474C164.258 9.65754 164.754 8.57694 165.744 7.70942C166.733 6.83429 167.966 6.39673 169.44 6.39673C171.43 6.39673 172.981 7.36318 174.1 9.29226L174.107 9.28846Z" fill="#00AE4D"/>
</svg>
