<svg width="24" height="24" viewBox="0 0 24 24" fill="none" xmlns="http://www.w3.org/2000/svg">
<path fill-rule="evenodd" clip-rule="evenodd" d="M8.30767 4.60059C6.12363 4.60059 4.35312 6.3711 4.35312 8.55513C4.35312 10.7392 6.12363 12.5097 8.30767 12.5097C10.4917 12.5097 12.2622 10.7392 12.2622 8.55513C12.2622 6.3711 10.4917 4.60059 8.30767 4.60059ZM5.35298 12.5186C4.30417 12.5186 3.29832 12.9352 2.5567 13.6768C1.81508 14.4184 1.39844 15.4243 1.39844 16.4731V17.9504C1.39844 18.5027 1.84615 18.9504 2.39844 18.9504H14.2166C14.7689 18.9504 15.2166 18.5027 15.2166 17.9504C15.2166 17.4734 15.1279 16.6512 14.9717 15.8821C14.8927 15.4927 14.7905 15.0875 14.6617 14.7276C14.5451 14.402 14.3617 13.9802 14.0584 13.6768C13.3167 12.9352 12.3109 12.5186 11.2621 12.5186H5.35298Z" fill="#0970DD"/>
<path fill-rule="evenodd" clip-rule="evenodd" d="M15.7375 10.4002C15.7375 9.59182 16.3928 8.93652 17.2011 8.93652C18.0095 8.93652 18.6648 9.59182 18.6648 10.4002C18.6648 11.2085 18.0095 11.8638 17.2011 11.8638C16.3928 11.8638 15.7375 11.2085 15.7375 10.4002ZM17.2011 7.93652C15.8405 7.93652 14.7375 9.03953 14.7375 10.4002C14.7375 11.7608 15.8405 12.8638 17.2011 12.8638C18.5618 12.8638 19.6648 11.7608 19.6648 10.4002C19.6648 9.03953 18.5618 7.93652 17.2011 7.93652ZM15.2371 13.5006C14.5837 13.5006 13.957 13.7601 13.495 14.2222C13.033 14.6842 12.7734 15.3108 12.7734 15.9642V16.946C12.7734 17.2222 12.9973 17.446 13.2734 17.446C13.5496 17.446 13.7734 17.2222 13.7734 16.946V15.9642C13.7734 15.576 13.9276 15.2038 14.2021 14.9293C14.4766 14.6548 14.8489 14.5006 15.2371 14.5006H17.2007H19.1643C19.5525 14.5006 19.9248 14.6548 20.1993 14.9293C20.4738 15.2038 20.628 15.576 20.628 15.9642V16.946C20.628 17.2222 20.8518 17.446 21.128 17.446C21.4041 17.446 21.628 17.2222 21.628 16.946V15.9642C21.628 15.3108 21.3684 14.6842 20.9064 14.2222C20.4444 13.7601 19.8177 13.5006 19.1643 13.5006H17.2007H15.2371Z" fill="#0970DD"/>
</svg>
