<svg width="80" height="80" viewBox="0 0 80 80" fill="none" xmlns="http://www.w3.org/2000/svg">
<path fill-rule="evenodd" clip-rule="evenodd" d="M45.2392 62.1315C33.5262 60.9685 24.3783 51.0861 24.3783 39.0671C24.3783 27.0481 33.5261 17.1657 45.2391 16.0026C44.4767 15.9269 43.7034 15.8882 42.9211 15.8882C30.1197 15.8882 19.7422 26.2657 19.7422 39.0671C19.7422 51.8684 30.1197 62.246 42.9211 62.246C43.7034 62.246 44.4767 62.2072 45.2392 62.1315Z" fill="#E1FAFF"/>
<path d="M23.7922 24.5563C22.9449 23.9083 21.7261 24.0664 21.1412 24.9585C17.7463 30.1361 16.2503 36.3558 16.9494 42.548C17.721 49.3821 21.1066 55.6528 26.3973 60.0469C31.6881 64.4411 38.4737 66.6181 45.3334 66.122C52.193 65.6258 58.5947 62.4951 63.1981 57.3854C67.8015 52.2756 70.2496 45.5831 70.0298 38.709C69.8099 31.835 66.9392 25.3125 62.0187 20.5073C57.0982 15.7021 50.5095 12.9869 43.6322 12.9301C37.4009 12.8787 31.3704 15.0133 26.5739 18.9281C25.7475 19.6027 25.717 20.8313 26.4496 21.6067C27.1822 22.3821 28.4001 22.4094 29.2347 21.7451C33.2994 18.5102 38.367 16.7498 43.6003 16.7931C49.48 16.8416 55.113 19.163 59.3197 23.2711C63.5264 27.3793 65.9807 32.9556 66.1687 38.8325C66.3566 44.7094 64.2637 50.4311 60.328 54.7997C56.3924 59.1682 50.9193 61.8448 45.0547 62.2689C39.1901 62.6931 33.3888 60.8319 28.8655 57.0752C24.3422 53.3184 21.4477 47.9574 20.7881 42.1146C20.2009 36.9141 21.4248 31.6909 24.2195 27.312C24.7934 26.4127 24.6396 25.2043 23.7922 24.5563Z" fill="#09B7DD"/>
<path d="M32.8516 22.5623C32.5965 22.1441 32.0494 22.0103 31.6428 22.2835C28.6233 24.3122 26.202 27.1215 24.6416 30.4197C23.0812 33.7179 22.4446 37.3717 22.7911 40.9929C22.8378 41.4805 23.2882 41.8186 23.7733 41.7506C24.2584 41.6826 24.5943 41.2343 24.5497 40.7465C24.25 37.4683 24.8327 34.1637 26.2451 31.1784C27.6575 28.1931 29.843 25.6467 32.5676 23.7995C32.9731 23.5246 33.1067 22.9805 32.8516 22.5623Z" fill="#09B7DD"/>
<path d="M39.0096 20.1336C38.9105 19.6539 38.4407 19.3433 37.9658 19.4633C36.7821 19.7624 35.628 20.1681 34.5175 20.6753C34.072 20.8789 33.8998 21.4151 34.1227 21.8513C34.3455 22.2875 34.879 22.4583 35.3254 22.2567C36.2931 21.8196 37.2966 21.4668 38.3249 21.2024C38.7994 21.0804 39.1086 20.6133 39.0096 20.1336Z" fill="#09B7DD"/>
<rect x="33.5508" y="43.5056" width="1.97267" height="7.89069" rx="0.986336" transform="rotate(-45 33.5508 43.5056)" fill="#09B7DD"/>
<rect x="39.1328" y="49.0851" width="1.97267" height="19.7267" rx="0.986336" transform="rotate(-135 39.1328 49.0851)" fill="#09B7DD"/>
<rect x="42.0039" y="1.09314" width="2.00023" height="7.89069" rx="1.00012" fill="#4EEBAD"/>
<rect x="42.0039" y="70.1367" width="2.00023" height="9.86336" rx="1.00012" fill="#4EEBAD"/>
<rect width="1.99703" height="4.25648" rx="0.998514" transform="matrix(0.9412 -0.337849 0.346229 0.93815 29.9883 7.17188)" fill="#4EEBAD"/>
<rect width="1.99703" height="3.09547" rx="0.998514" transform="matrix(0.9412 -0.337849 0.346229 0.93815 52.668 68.63)" fill="#4EEBAD"/>
<rect width="1.99703" height="11.1821" rx="0.998514" transform="matrix(0.9412 0.337849 -0.346229 0.93815 56.5391 0)" fill="#4EEBAD"/>
<rect width="1.99703" height="7.90366" rx="0.998514" transform="matrix(0.9412 0.337849 -0.346229 0.93815 31.4609 67.9553)" fill="#4EEBAD"/>
<rect width="1.97592" height="2.03536" rx="0.987958" transform="matrix(0.346229 -0.93815 0.9412 0.337849 11.6133 29.3417)" fill="#4EEBAD"/>
<rect width="1.97592" height="6.04107" rx="0.987958" transform="matrix(0.346229 -0.93815 0.9412 0.337849 71.7969 50.9448)" fill="#4EEBAD"/>
<rect width="1.97592" height="7.98811" rx="0.987958" transform="matrix(0.346229 0.93815 -0.9412 0.337849 79.3164 25.4768)" fill="#4EEBAD"/>
<rect width="1.97592" height="7.98811" rx="0.987958" transform="matrix(0.346229 0.93815 -0.9412 0.337849 13.5312 49.0911)" fill="#4EEBAD"/>
<rect y="40.5466" width="1.97267" height="12.0014" rx="0.986336" transform="rotate(-90 0 40.5466)" fill="#4EEBAD"/>
<rect x="74.0078" y="40.5466" width="1.97267" height="3.00035" rx="0.986336" transform="rotate(-90 74.0078 40.5466)" fill="#4EEBAD"/>
<rect width="1.9865" height="8.17119" rx="0.99325" transform="matrix(0.711995 -0.702184 0.711995 0.702184 14.5547 12.8992)" fill="#4EEBAD"/>
<rect width="1.9865" height="6.02028" rx="0.99325" transform="matrix(0.711995 -0.702184 0.711995 0.702184 64.2227 61.8784)" fill="#4EEBAD"/>
<rect width="1.9865" height="6.28033" rx="0.99325" transform="matrix(0.711995 0.702184 -0.711995 0.702184 68.6914 12.832)" fill="#4EEBAD"/>
<rect width="1.9865" height="2.68133" rx="0.99325" transform="matrix(0.711995 0.702184 -0.711995 0.702184 20.375 60.4836)" fill="#4EEBAD"/>
</svg>
