<svg width="48" height="48" viewBox="0 0 48 48" fill="none" xmlns="http://www.w3.org/2000/svg">
<rect width="48" height="48" rx="8" fill="#00AE4D"/>
<g clip-path="url(#clip0_0_1459)">
<path fill-rule="evenodd" clip-rule="evenodd" d="M27.8202 25.8706C27.2145 26.1181 26.8277 27.0662 26.4352 27.5506C26.2339 27.7987 25.9939 27.8375 25.6845 27.7131C23.4114 26.8075 21.6689 25.2906 20.4145 23.1987C20.202 22.8744 20.2402 22.6181 20.4964 22.3169C20.8752 21.8706 21.3514 21.3637 21.4539 20.7625C21.6814 19.4325 19.9427 15.3069 17.6464 17.1763C11.0389 22.5606 28.6689 36.8413 31.8508 29.1175C32.7508 26.9281 28.8239 25.4594 27.8202 25.8706ZM24.0002 37.205C21.6633 37.205 19.3639 36.5837 17.3508 35.4075C17.0277 35.2181 16.637 35.1681 16.2758 35.2663L11.9014 36.4669L13.4252 33.11C13.6327 32.6531 13.5795 32.1213 13.2864 31.715C11.6564 29.4556 10.7945 26.7881 10.7945 24C10.7945 16.7181 16.7183 10.7944 24.0002 10.7944C31.282 10.7944 37.2052 16.7181 37.2052 24C37.2052 31.2812 31.2814 37.205 24.0002 37.205ZM24.0002 8C15.1777 8 8.00017 15.1775 8.00017 24C8.00017 27.1038 8.88142 30.0844 10.5558 32.6712L8.12517 38.0244C7.90079 38.5188 7.98267 39.0975 8.33392 39.5094C8.60392 39.825 8.99454 40 9.39767 40C10.2989 40 15.2133 38.4556 16.4639 38.1125C18.7758 39.3494 21.3689 40 24.0002 40C32.822 40 40.0002 32.8219 40.0002 24C40.0002 15.1775 32.822 8 24.0002 8Z" fill="white"/>
</g>
<defs>
<clipPath id="clip0_0_1459">
<rect width="32" height="32" fill="white" transform="translate(8 8)"/>
</clipPath>
</defs>
</svg>
