<svg width="299" height="298" viewBox="0 0 299 298" fill="none" xmlns="http://www.w3.org/2000/svg">
<g filter="url(#filter0_d)">
<rect x="8.53906" y="134.558" width="200" height="200" rx="56" transform="rotate(-40 8.53906 134.558)" fill="#EEEEEE"/>
<rect x="9.24348" y="134.619" width="199" height="199" rx="55.5" transform="rotate(-40 9.24348 134.619)" stroke="#DDDDDD"/>
</g>
<g filter="url(#filter1_d)">
<rect x="25.7305" y="78.321" width="200" height="200" rx="56" transform="rotate(-16 25.7305 78.321)" fill="white"/>
<rect x="26.3489" y="78.6639" width="199" height="199" rx="55.5" transform="rotate(-16 26.3489 78.6639)" stroke="#19D097"/>
</g>
<path d="M186.578 95H106.141C101.1 95 97 99.1005 97 104.141V184.578C97 189.618 101.1 193.719 106.141 193.719H166.266C167.074 193.719 167.849 193.398 168.42 192.826L194.826 166.42C195.398 165.849 195.719 165.074 195.719 164.266V104.141C195.719 99.1005 191.618 95 186.578 95Z" fill="#696969"/>
<path d="M146.359 95H106.141C101.1 95 97 99.1005 97 104.141V144.359H146.359V95Z" fill="#696969"/>
<path d="M195.719 144.359V104.141C195.719 99.1005 191.618 95 186.578 95H146.359V144.359H195.719Z" fill="#555555"/>
<path d="M146.359 144.359V193.719H166.266C167.074 193.719 167.849 193.398 168.42 192.826L194.826 166.42C195.398 165.849 195.719 165.074 195.719 164.266V144.359H146.359ZM192.672 164.266H192.674H192.672Z" fill="#414141"/>
<path d="M97 144.359V184.578C97 189.618 101.1 193.719 106.141 193.719H146.359V144.359H97Z" fill="#555555"/>
<path d="M128.789 116.633H124.727V112.57C124.727 110.888 123.362 109.523 121.68 109.523C119.997 109.523 118.633 110.888 118.633 112.57V116.633H114.57C112.888 116.633 111.523 117.997 111.523 119.68C111.523 121.362 112.888 122.727 114.57 122.727H118.633V126.789C118.633 128.472 119.997 129.836 121.68 129.836C123.362 129.836 124.727 128.472 124.727 126.789V122.727H128.789C130.472 122.727 131.836 121.362 131.836 119.68C131.836 117.997 130.472 116.633 128.789 116.633Z" fill="#DCF5FA"/>
<path d="M178.148 122.727H163.93C162.247 122.727 160.883 121.362 160.883 119.68C160.883 117.997 162.247 116.633 163.93 116.633H178.148C179.831 116.633 181.195 117.997 181.195 119.68C181.195 121.362 179.831 122.727 178.148 122.727Z" fill="#BEDCE6"/>
<path d="M125.989 169.039L128.912 166.115C130.102 164.925 130.102 162.996 128.912 161.806C127.723 160.616 125.793 160.616 124.604 161.806L121.68 164.73L118.756 161.806C117.566 160.616 115.637 160.616 114.447 161.806C113.257 162.996 113.257 164.925 114.447 166.115L117.371 169.039L114.447 171.962C113.257 173.152 113.257 175.081 114.447 176.271C115.042 176.866 115.822 177.164 116.601 177.164C117.381 177.164 118.161 176.867 118.756 176.271L121.68 173.348L124.603 176.271C125.198 176.866 125.978 177.164 126.758 177.164C127.537 177.164 128.317 176.867 128.912 176.271C130.102 175.081 130.102 173.152 128.912 171.962L125.989 169.039Z" fill="#DCF5FA"/>
<path d="M169.516 199C152.155 199 138.031 184.876 138.031 167.516C138.031 150.155 152.155 136.031 169.516 136.031C186.876 136.031 201 150.155 201 167.516C201 184.876 186.876 199 169.516 199Z" fill="#19D097"/>
<path d="M176.625 176.656H162.406C160.724 176.656 159.359 175.292 159.359 173.609C159.359 171.927 160.724 170.562 162.406 170.562H176.625C178.308 170.562 179.672 171.927 179.672 173.609C179.672 175.292 178.308 176.656 176.625 176.656Z" fill="white"/>
<path d="M176.625 164.469H162.406C160.724 164.469 159.359 163.105 159.359 161.422C159.359 159.739 160.724 158.375 162.406 158.375H176.625C178.308 158.375 179.672 159.739 179.672 161.422C179.672 163.105 178.308 164.469 176.625 164.469Z" fill="white"/>
<defs>
<filter id="filter0_d" x="0.539062" y="0" width="297.766" height="297.766" filterUnits="userSpaceOnUse" color-interpolation-filters="sRGB">
<feFlood flood-opacity="0" result="BackgroundImageFix"/>
<feColorMatrix in="SourceAlpha" type="matrix" values="0 0 0 0 0 0 0 0 0 0 0 0 0 0 0 0 0 0 127 0"/>
<feOffset dy="2"/>
<feGaussianBlur stdDeviation="4"/>
<feColorMatrix type="matrix" values="0 0 0 0 0 0 0 0 0 0 0 0 0 0 0 0 0 0 0.24 0"/>
<feBlend mode="normal" in2="BackgroundImageFix" result="effect1_dropShadow"/>
<feBlend mode="normal" in="SourceGraphic" in2="effect1_dropShadow" result="shape"/>
</filter>
<filter id="filter1_d" x="9.73047" y="11.1936" width="279.38" height="279.38" filterUnits="userSpaceOnUse" color-interpolation-filters="sRGB">
<feFlood flood-opacity="0" result="BackgroundImageFix"/>
<feColorMatrix in="SourceAlpha" type="matrix" values="0 0 0 0 0 0 0 0 0 0 0 0 0 0 0 0 0 0 127 0"/>
<feOffset dy="4"/>
<feGaussianBlur stdDeviation="8"/>
<feColorMatrix type="matrix" values="0 0 0 0 0.0980392 0 0 0 0 0.815686 0 0 0 0 0.592157 0 0 0 0.4 0"/>
<feBlend mode="normal" in2="BackgroundImageFix" result="effect1_dropShadow"/>
<feBlend mode="normal" in="SourceGraphic" in2="effect1_dropShadow" result="shape"/>
</filter>
</defs>
</svg>
